<?xml version="1.0" encoding="UTF-8"?><svg xmlns="http://www.w3.org/2000/svg" xmlns:xlink="http://www.w3.org/1999/xlink" contentScriptType="text/ecmascript" width="375" zoomAndPan="magnify" contentStyleType="text/css" viewBox="0 0 375 374.999991" height="374.999991" preserveAspectRatio="xMidYMid meet" version="1.0"><path fill="rgb(78.039551%, 61.178589%, 78.42865%)" d="M 346.1875 279.332031 L 346.1875 95.957031 L 187.566406 4.269531 L 28.945312 95.957031 L 28.945312 279.332031 L 187.566406 371.019531 Z M 346.1875 279.332031 " fill-opacity="1" fill-rule="nonzero"/><path fill="rgb(48.629761%, 32.548523%, 49.01886%)" d="M 330.183594 110.773438 L 330.183594 106.238281 L 186.183594 23.242188 L 186.183594 193.769531 Z M 330.183594 110.773438 " fill-opacity="1" fill-rule="nonzero"/><path fill="rgb(48.629761%, 32.548523%, 49.01886%)" d="M 330.183594 267.347656 L 330.183594 106.238281 L 186.183594 189.238281 L 186.183594 350.34375 Z M 330.183594 267.347656 " fill-opacity="1" fill-rule="nonzero"/><path stroke-linecap="round" transform="matrix(0.000000000000000688, -11.240548, 11.249999, 0.000000000000000689, 185.113893, 353.203513)" fill="none" stroke-linejoin="miter" d="M 0.500107 -0.0000543906 L 29.258296 -0.0000543906 " stroke="rgb(100%, 100%, 100%)" stroke-width="1" stroke-opacity="1" stroke-miterlimit="4"/><path stroke-linecap="round" transform="matrix(9.75618, 5.632733, -5.625, 9.742785, 180.577742, 20.359113)" fill="none" stroke-linejoin="miter" d="M 0.500106 -0.0000300632 L 15.411683 -0.000107014 " stroke="rgb(100%, 100%, 100%)" stroke-width="1" stroke-opacity="1" stroke-miterlimit="4"/><path stroke-linecap="round" transform="matrix(0.00000000000000069, 11.265787, -11.249999, 0.000000000000000689, 331.870471, 102.583536)" fill="none" stroke-linejoin="miter" d="M 0.499859 -0.0000553816 L 14.346748 -0.0000553816 " stroke="rgb(100%, 100%, 100%)" stroke-width="1" stroke-opacity="1" stroke-miterlimit="4"/><path stroke-linecap="round" transform="matrix(9.740842, -5.623878, 5.625, 9.742785, 184.169596, 349.606237)" fill="none" stroke-linejoin="miter" d="M 0.499986 -0.000144787 L 15.170681 0.0000901973 " stroke="rgb(100%, 100%, 100%)" stroke-width="1" stroke-opacity="1" stroke-miterlimit="4"/><path stroke-linecap="round" transform="matrix(9.457872, -6.088968, 6.089825, 9.459203, 119.208066, 152.789229)" fill="none" stroke-linejoin="miter" d="M 0.499972 0.000124751 L 14.303003 0.0000551481 " stroke="rgb(100%, 100%, 100%)" stroke-width="1" stroke-opacity="1" stroke-miterlimit="4"/><path stroke-linecap="round" transform="matrix(9.43818, 6.110935, -6.11431, 9.443394, 121.013999, 148.086113)" fill="none" stroke-linejoin="miter" d="M 0.50005 -0.000133387 L 12.707533 0.000124292 " stroke="rgb(100%, 100%, 100%)" stroke-width="1" stroke-opacity="1" stroke-miterlimit="4"/><path stroke-linecap="round" transform="matrix(9.270397, -6.379, 6.377251, 9.267855, 102.129065, 321.251638)" fill="none" stroke-linejoin="miter" d="M 0.500081 0.0000951052 L 14.696411 0.0000727634 " stroke="rgb(100%, 100%, 100%)" stroke-width="1" stroke-opacity="1" stroke-miterlimit="4"/></svg>